<mxfile host="app.diagrams.net" agent="Mozilla/5.0 (Macintosh; Intel Mac OS X 10_15_7) AppleWebKit/537.36 (KHTML, like Gecko) Chrome/130.0.0.0 Safari/537.36" version="24.7.14">
  <diagram name="Page-1" id="2YBvvXClWsGukQMizWep">
    <mxGraphModel dx="918" dy="632" grid="1" gridSize="10" guides="1" tooltips="1" connect="1" arrows="1" fold="1" page="1" pageScale="1" pageWidth="850" pageHeight="1100" math="0" shadow="0">
      <root>
        <mxCell id="0" />
        <mxCell id="1" parent="0" />
        <mxCell id="KODmHzVa2E70UIU3vrZW-14" value="Formulaire" style="html=1;whiteSpace=wrap;" vertex="1" parent="1">
          <mxGeometry x="120" y="120" width="80" height="40" as="geometry" />
        </mxCell>
        <mxCell id="KODmHzVa2E70UIU3vrZW-29" style="edgeStyle=orthogonalEdgeStyle;rounded=0;orthogonalLoop=1;jettySize=auto;html=1;entryX=0.5;entryY=0;entryDx=0;entryDy=0;" edge="1" parent="1" source="KODmHzVa2E70UIU3vrZW-17" target="KODmHzVa2E70UIU3vrZW-25">
          <mxGeometry relative="1" as="geometry" />
        </mxCell>
        <mxCell id="KODmHzVa2E70UIU3vrZW-17" value="Vérification des données" style="rounded=0;whiteSpace=wrap;html=1;" vertex="1" parent="1">
          <mxGeometry x="360" y="120" width="80" height="40" as="geometry" />
        </mxCell>
        <mxCell id="KODmHzVa2E70UIU3vrZW-18" value="" style="endArrow=classic;html=1;rounded=0;exitX=1;exitY=0.25;exitDx=0;exitDy=0;entryX=0;entryY=0.25;entryDx=0;entryDy=0;" edge="1" parent="1" source="KODmHzVa2E70UIU3vrZW-14" target="KODmHzVa2E70UIU3vrZW-17">
          <mxGeometry width="50" height="50" relative="1" as="geometry">
            <mxPoint x="200" y="220" as="sourcePoint" />
            <mxPoint x="250" y="170" as="targetPoint" />
          </mxGeometry>
        </mxCell>
        <mxCell id="KODmHzVa2E70UIU3vrZW-19" value="&lt;font style=&quot;font-size: 9px;&quot;&gt;&amp;nbsp;Remplir le&amp;nbsp;&lt;/font&gt;&lt;div&gt;&lt;font style=&quot;font-size: 9px;&quot;&gt;formulaire&lt;/font&gt;&lt;/div&gt;" style="text;html=1;align=center;verticalAlign=middle;resizable=0;points=[];autosize=1;strokeColor=none;fillColor=none;" vertex="1" parent="1">
          <mxGeometry x="60" y="100" width="70" height="40" as="geometry" />
        </mxCell>
        <mxCell id="KODmHzVa2E70UIU3vrZW-40" style="edgeStyle=orthogonalEdgeStyle;rounded=0;orthogonalLoop=1;jettySize=auto;html=1;exitX=0.5;exitY=1;exitDx=0;exitDy=0;entryX=0.5;entryY=0;entryDx=0;entryDy=0;" edge="1" parent="1" source="KODmHzVa2E70UIU3vrZW-25" target="KODmHzVa2E70UIU3vrZW-39">
          <mxGeometry relative="1" as="geometry" />
        </mxCell>
        <mxCell id="KODmHzVa2E70UIU3vrZW-25" value="Inscription validée" style="html=1;whiteSpace=wrap;" vertex="1" parent="1">
          <mxGeometry x="360" y="240" width="80" height="40" as="geometry" />
        </mxCell>
        <mxCell id="KODmHzVa2E70UIU3vrZW-27" style="edgeStyle=orthogonalEdgeStyle;rounded=0;orthogonalLoop=1;jettySize=auto;html=1;entryX=0;entryY=0.5;entryDx=0;entryDy=0;" edge="1" parent="1" source="KODmHzVa2E70UIU3vrZW-26" target="KODmHzVa2E70UIU3vrZW-14">
          <mxGeometry relative="1" as="geometry" />
        </mxCell>
        <mxCell id="KODmHzVa2E70UIU3vrZW-26" value="" style="ellipse;whiteSpace=wrap;html=1;aspect=fixed;" vertex="1" parent="1">
          <mxGeometry x="50" y="130" width="20" height="20" as="geometry" />
        </mxCell>
        <mxCell id="KODmHzVa2E70UIU3vrZW-28" value="&lt;font size=&quot;1&quot;&gt;Envoi des données&lt;/font&gt;" style="text;html=1;align=center;verticalAlign=middle;resizable=0;points=[];autosize=1;strokeColor=none;fillColor=none;" vertex="1" parent="1">
          <mxGeometry x="220" y="100" width="110" height="30" as="geometry" />
        </mxCell>
        <mxCell id="KODmHzVa2E70UIU3vrZW-30" value="&lt;font size=&quot;1&quot;&gt;Données corrects&lt;/font&gt;" style="text;html=1;align=center;verticalAlign=middle;resizable=0;points=[];autosize=1;strokeColor=none;fillColor=none;" vertex="1" parent="1">
          <mxGeometry x="400" y="180" width="100" height="30" as="geometry" />
        </mxCell>
        <mxCell id="KODmHzVa2E70UIU3vrZW-32" value="" style="endArrow=none;dashed=1;html=1;dashPattern=1 3;strokeWidth=2;rounded=0;entryX=0;entryY=0.75;entryDx=0;entryDy=0;exitX=1;exitY=0.75;exitDx=0;exitDy=0;" edge="1" parent="1" source="KODmHzVa2E70UIU3vrZW-14" target="KODmHzVa2E70UIU3vrZW-17">
          <mxGeometry width="50" height="50" relative="1" as="geometry">
            <mxPoint x="200" y="220" as="sourcePoint" />
            <mxPoint x="250" y="170" as="targetPoint" />
          </mxGeometry>
        </mxCell>
        <mxCell id="KODmHzVa2E70UIU3vrZW-33" value="" style="endArrow=classic;html=1;rounded=0;" edge="1" parent="1">
          <mxGeometry width="50" height="50" relative="1" as="geometry">
            <mxPoint x="210" y="150" as="sourcePoint" />
            <mxPoint x="200" y="150" as="targetPoint" />
          </mxGeometry>
        </mxCell>
        <mxCell id="KODmHzVa2E70UIU3vrZW-34" value="&lt;font size=&quot;1&quot;&gt;Données incorrects&lt;/font&gt;" style="text;html=1;align=center;verticalAlign=middle;resizable=0;points=[];autosize=1;strokeColor=none;fillColor=none;" vertex="1" parent="1">
          <mxGeometry x="225" y="151" width="110" height="30" as="geometry" />
        </mxCell>
        <mxCell id="KODmHzVa2E70UIU3vrZW-36" value="" style="curved=1;endArrow=classic;html=1;rounded=0;exitX=0.75;exitY=0;exitDx=0;exitDy=0;entryX=0.25;entryY=0;entryDx=0;entryDy=0;" edge="1" parent="1" source="KODmHzVa2E70UIU3vrZW-14" target="KODmHzVa2E70UIU3vrZW-14">
          <mxGeometry width="50" height="50" relative="1" as="geometry">
            <mxPoint x="200" y="220" as="sourcePoint" />
            <mxPoint x="250" y="170" as="targetPoint" />
            <Array as="points">
              <mxPoint x="180" y="100" />
              <mxPoint x="160" y="90" />
              <mxPoint x="140" y="100" />
              <mxPoint x="140" y="110" />
            </Array>
          </mxGeometry>
        </mxCell>
        <mxCell id="KODmHzVa2E70UIU3vrZW-38" value="&lt;font size=&quot;1&quot;&gt;Saisie des informations&lt;/font&gt;" style="text;html=1;align=center;verticalAlign=middle;resizable=0;points=[];autosize=1;strokeColor=none;fillColor=none;" vertex="1" parent="1">
          <mxGeometry x="95" y="70" width="130" height="30" as="geometry" />
        </mxCell>
        <mxCell id="KODmHzVa2E70UIU3vrZW-39" value="" style="ellipse;whiteSpace=wrap;html=1;aspect=fixed;fillColor=#000000;" vertex="1" parent="1">
          <mxGeometry x="390" y="300" width="20" height="20" as="geometry" />
        </mxCell>
        <mxCell id="KODmHzVa2E70UIU3vrZW-41" value="INSCRIPTION" style="text;html=1;align=center;verticalAlign=middle;resizable=0;points=[];autosize=1;strokeColor=none;fillColor=none;" vertex="1" parent="1">
          <mxGeometry x="210" y="40" width="100" height="30" as="geometry" />
        </mxCell>
        <mxCell id="KODmHzVa2E70UIU3vrZW-42" value="RECHERCHE PRODUIT" style="text;html=1;align=center;verticalAlign=middle;resizable=0;points=[];autosize=1;strokeColor=none;fillColor=none;" vertex="1" parent="1">
          <mxGeometry x="180" y="370" width="160" height="30" as="geometry" />
        </mxCell>
        <mxCell id="KODmHzVa2E70UIU3vrZW-47" style="edgeStyle=orthogonalEdgeStyle;rounded=0;orthogonalLoop=1;jettySize=auto;html=1;entryX=0;entryY=0.5;entryDx=0;entryDy=0;" edge="1" parent="1" source="KODmHzVa2E70UIU3vrZW-43" target="KODmHzVa2E70UIU3vrZW-46">
          <mxGeometry relative="1" as="geometry" />
        </mxCell>
        <mxCell id="KODmHzVa2E70UIU3vrZW-43" value="" style="ellipse;whiteSpace=wrap;html=1;aspect=fixed;" vertex="1" parent="1">
          <mxGeometry x="50" y="450" width="20" height="20" as="geometry" />
        </mxCell>
        <mxCell id="KODmHzVa2E70UIU3vrZW-52" style="edgeStyle=orthogonalEdgeStyle;rounded=0;orthogonalLoop=1;jettySize=auto;html=1;exitX=1;exitY=0.25;exitDx=0;exitDy=0;entryX=0;entryY=0.25;entryDx=0;entryDy=0;" edge="1" parent="1" source="KODmHzVa2E70UIU3vrZW-46" target="KODmHzVa2E70UIU3vrZW-50">
          <mxGeometry relative="1" as="geometry" />
        </mxCell>
        <mxCell id="KODmHzVa2E70UIU3vrZW-46" value="Formulaire" style="html=1;whiteSpace=wrap;" vertex="1" parent="1">
          <mxGeometry x="120" y="440" width="80" height="40" as="geometry" />
        </mxCell>
        <mxCell id="KODmHzVa2E70UIU3vrZW-49" value="&lt;font size=&quot;1&quot;&gt;Saisie des informations&lt;/font&gt;" style="text;html=1;align=center;verticalAlign=middle;resizable=0;points=[];autosize=1;strokeColor=none;fillColor=none;" vertex="1" parent="1">
          <mxGeometry x="30" y="415" width="130" height="30" as="geometry" />
        </mxCell>
        <mxCell id="KODmHzVa2E70UIU3vrZW-58" style="edgeStyle=orthogonalEdgeStyle;rounded=0;orthogonalLoop=1;jettySize=auto;html=1;" edge="1" parent="1" source="KODmHzVa2E70UIU3vrZW-50" target="KODmHzVa2E70UIU3vrZW-51">
          <mxGeometry relative="1" as="geometry" />
        </mxCell>
        <mxCell id="KODmHzVa2E70UIU3vrZW-50" value="Vérification des données" style="rounded=0;whiteSpace=wrap;html=1;" vertex="1" parent="1">
          <mxGeometry x="360" y="440" width="80" height="40" as="geometry" />
        </mxCell>
        <mxCell id="KODmHzVa2E70UIU3vrZW-57" style="edgeStyle=orthogonalEdgeStyle;rounded=0;orthogonalLoop=1;jettySize=auto;html=1;entryX=0.5;entryY=0;entryDx=0;entryDy=0;" edge="1" parent="1" source="KODmHzVa2E70UIU3vrZW-51" target="KODmHzVa2E70UIU3vrZW-56">
          <mxGeometry relative="1" as="geometry" />
        </mxCell>
        <mxCell id="KODmHzVa2E70UIU3vrZW-51" value="Affichage" style="rounded=0;whiteSpace=wrap;html=1;" vertex="1" parent="1">
          <mxGeometry x="360" y="560" width="80" height="40" as="geometry" />
        </mxCell>
        <mxCell id="KODmHzVa2E70UIU3vrZW-53" value="&lt;font size=&quot;1&quot;&gt;Envoi des données&lt;/font&gt;" style="text;html=1;align=center;verticalAlign=middle;resizable=0;points=[];autosize=1;strokeColor=none;fillColor=none;" vertex="1" parent="1">
          <mxGeometry x="225" y="423" width="110" height="30" as="geometry" />
        </mxCell>
        <mxCell id="KODmHzVa2E70UIU3vrZW-54" value="" style="endArrow=none;dashed=1;html=1;dashPattern=1 3;strokeWidth=2;rounded=0;entryX=0;entryY=0.75;entryDx=0;entryDy=0;exitX=1;exitY=0.75;exitDx=0;exitDy=0;" edge="1" parent="1" source="KODmHzVa2E70UIU3vrZW-46" target="KODmHzVa2E70UIU3vrZW-50">
          <mxGeometry width="50" height="50" relative="1" as="geometry">
            <mxPoint x="300" y="480" as="sourcePoint" />
            <mxPoint x="250" y="330" as="targetPoint" />
          </mxGeometry>
        </mxCell>
        <mxCell id="KODmHzVa2E70UIU3vrZW-55" value="&lt;font size=&quot;1&quot;&gt;Données incorrects / produit pas trouvé&lt;/font&gt;" style="text;html=1;align=center;verticalAlign=middle;resizable=0;points=[];autosize=1;strokeColor=none;fillColor=none;" vertex="1" parent="1">
          <mxGeometry x="175" y="470" width="200" height="30" as="geometry" />
        </mxCell>
        <mxCell id="KODmHzVa2E70UIU3vrZW-56" value="" style="ellipse;whiteSpace=wrap;html=1;aspect=fixed;fillColor=#000000;" vertex="1" parent="1">
          <mxGeometry x="390" y="620" width="20" height="20" as="geometry" />
        </mxCell>
        <mxCell id="KODmHzVa2E70UIU3vrZW-60" value="&lt;font size=&quot;1&quot;&gt;Produit trouvé&lt;/font&gt;" style="text;html=1;align=center;verticalAlign=middle;resizable=0;points=[];autosize=1;strokeColor=none;fillColor=none;" vertex="1" parent="1">
          <mxGeometry x="400" y="500" width="90" height="30" as="geometry" />
        </mxCell>
        <mxCell id="KODmHzVa2E70UIU3vrZW-61" value="" style="endArrow=none;dashed=1;html=1;dashPattern=1 3;strokeWidth=2;rounded=0;entryX=0.5;entryY=1;entryDx=0;entryDy=0;" edge="1" parent="1" target="KODmHzVa2E70UIU3vrZW-46">
          <mxGeometry width="50" height="50" relative="1" as="geometry">
            <mxPoint x="80" y="500" as="sourcePoint" />
            <mxPoint x="250" y="470" as="targetPoint" />
            <Array as="points">
              <mxPoint x="160" y="500" />
            </Array>
          </mxGeometry>
        </mxCell>
        <mxCell id="KODmHzVa2E70UIU3vrZW-62" value="" style="ellipse;whiteSpace=wrap;html=1;aspect=fixed;fillColor=#000000;" vertex="1" parent="1">
          <mxGeometry x="60" y="490" width="20" height="20" as="geometry" />
        </mxCell>
        <mxCell id="KODmHzVa2E70UIU3vrZW-63" value="" style="endArrow=classic;html=1;rounded=0;" edge="1" parent="1">
          <mxGeometry width="50" height="50" relative="1" as="geometry">
            <mxPoint x="210" y="469" as="sourcePoint" />
            <mxPoint x="200" y="469.26" as="targetPoint" />
          </mxGeometry>
        </mxCell>
        <mxCell id="KODmHzVa2E70UIU3vrZW-64" value="" style="endArrow=classic;html=1;rounded=0;" edge="1" parent="1">
          <mxGeometry width="50" height="50" relative="1" as="geometry">
            <mxPoint x="90" y="500" as="sourcePoint" />
            <mxPoint x="80" y="500" as="targetPoint" />
          </mxGeometry>
        </mxCell>
      </root>
    </mxGraphModel>
  </diagram>
</mxfile>
